<svg width="24" height="24" viewBox="0 0 24 24" fill="none" xmlns="http://www.w3.org/2000/svg">
<g clip-path="url(#clip0_707_121)">
<path fill-rule="evenodd" clip-rule="evenodd" d="M0 10.125C0 8.676 1.176 7.5 2.625 7.5H4.875C5.17337 7.5 5.45952 7.61853 5.6705 7.8295C5.88147 8.04048 6 8.32663 6 8.625C6 8.92337 5.88147 9.20952 5.6705 9.4205C5.45952 9.63147 5.17337 9.75 4.875 9.75H2.625C2.52554 9.75 2.43016 9.78951 2.35984 9.85983C2.28951 9.93016 2.25 10.0255 2.25 10.125V21.375C2.25 21.582 2.418 21.75 2.625 21.75H13.875C13.9745 21.75 14.0698 21.7105 14.1402 21.6402C14.2105 21.5698 14.25 21.4745 14.25 21.375V19.125C14.25 18.8266 14.3685 18.5405 14.5795 18.3295C14.7905 18.1185 15.0766 18 15.375 18C15.6734 18 15.9595 18.1185 16.1705 18.3295C16.3815 18.5405 16.5 18.8266 16.5 19.125V21.375C16.5 22.0712 16.2234 22.7389 15.7312 23.2312C15.2389 23.7234 14.5712 24 13.875 24H2.625C1.92881 24 1.26113 23.7234 0.768845 23.2312C0.276562 22.7389 0 22.0712 0 21.375L0 10.125Z" fill="#BDA7E9"/>
<path fill-rule="evenodd" clip-rule="evenodd" d="M7.5 2.625C7.5 1.176 8.676 0 10.125 0H21.375C22.824 0 24 1.176 24 2.625V13.875C24 14.5712 23.7234 15.2389 23.2312 15.7312C22.7389 16.2234 22.0712 16.5 21.375 16.5H10.125C9.42881 16.5 8.76113 16.2234 8.26884 15.7312C7.77656 15.2389 7.5 14.5712 7.5 13.875V2.625ZM10.125 2.25C10.0255 2.25 9.93016 2.28951 9.85983 2.35984C9.78951 2.43016 9.75 2.52554 9.75 2.625V13.875C9.75 14.082 9.918 14.25 10.125 14.25H21.375C21.4745 14.25 21.5698 14.2105 21.6402 14.1402C21.7105 14.0698 21.75 13.9745 21.75 13.875V2.625C21.75 2.52554 21.7105 2.43016 21.6402 2.35984C21.5698 2.28951 21.4745 2.25 21.375 2.25H10.125Z" fill="#BDA7E9"/>
</g>
<defs>
<clipPath id="clip0_707_121">
<rect width="24" height="24" fill="white"/>
</clipPath>
</defs>
</svg>
