<svg width="26" height="26" viewBox="0 0 26 26" fill="none" xmlns="http://www.w3.org/2000/svg">
<g clip-path="url(#clip0_707_135)">
<path fill-rule="evenodd" clip-rule="evenodd" d="M12.0715 2.47812C12.6889 2.42445 13.3098 2.42445 13.9272 2.47812C13.9857 2.483 14.1027 2.53662 14.1498 2.71537L14.6195 4.511C14.8583 5.421 15.5132 6.08237 16.2396 6.44312C16.5223 6.58287 16.7937 6.7405 17.0537 6.91437C17.7313 7.36612 18.63 7.60175 19.54 7.35312L21.3307 6.86075C21.5095 6.812 21.6151 6.88675 21.6476 6.9355C22.0035 7.43925 22.3138 7.97712 22.5787 8.54262C22.6015 8.593 22.6145 8.72137 22.4828 8.85137L21.1585 10.1611C20.4906 10.8209 20.2452 11.7162 20.2972 12.5271C20.3172 12.8421 20.3172 13.1579 20.2972 13.4729C20.2452 14.2837 20.4906 15.1791 21.1585 15.8389L22.4828 17.1486C22.6128 17.2786 22.6015 17.407 22.5787 17.4574C22.3163 18.02 22.0047 18.5583 21.6476 19.0661C21.6151 19.1132 21.5078 19.1864 21.3307 19.1392L19.5383 18.6469C18.63 18.3982 17.7313 18.6339 17.0537 19.0856C16.7937 19.2595 16.5223 19.4171 16.2412 19.5569C15.5116 19.9176 14.8583 20.5774 14.6195 21.489L14.1498 23.2846C14.1027 23.4634 13.9857 23.517 13.9272 23.5219C13.3098 23.5754 12.6889 23.5754 12.0715 23.5219C12.013 23.517 11.896 23.4617 11.8488 23.2846L11.3792 21.489C11.1403 20.579 10.4855 19.9176 9.75909 19.5569C9.47788 19.4174 9.20595 19.26 8.94496 19.0856C8.26734 18.6339 7.36871 18.3982 6.45871 18.6469L4.66796 19.1392C4.48921 19.188 4.38359 19.1132 4.35109 19.0645C3.99407 18.5572 3.68248 18.0194 3.41996 17.4574C3.39721 17.407 3.38421 17.2786 3.51584 17.1486L4.84021 15.8389C5.50809 15.1791 5.75346 14.2837 5.70146 13.4729C5.68144 13.1579 5.68144 12.8421 5.70146 12.5271C5.75346 11.7162 5.50809 10.8209 4.84021 10.1611L3.51584 8.85137C3.38584 8.72137 3.39721 8.593 3.41996 8.54262C3.682 7.97982 3.99361 7.44144 4.35109 6.93387C4.38359 6.88675 4.49084 6.812 4.66796 6.86075L6.46034 7.35312C7.36871 7.60175 8.26734 7.36612 8.94496 6.91437C9.20496 6.7405 9.47634 6.58287 9.75746 6.44312C10.4871 6.08237 11.1403 5.42262 11.3792 4.511L11.8488 2.71537C11.896 2.53662 12.013 2.483 12.0715 2.47812V2.47812ZM12.9993 0C12.6158 0 12.2356 0.01625 11.8602 0.04875C10.6528 0.154375 9.76396 1.04812 9.49096 2.09787L9.01971 3.89512C8.99209 4.00237 8.89296 4.15187 8.67684 4.25912C8.30191 4.44468 7.93933 4.6542 7.59134 4.88637C7.39146 5.01962 7.21271 5.03262 7.10384 5.00175L5.31309 4.511C4.26659 4.22337 3.05109 4.5435 2.35559 5.53475C1.91679 6.159 1.53397 6.82078 1.21159 7.51237C0.699712 8.60925 1.03121 9.82312 1.80146 10.5852L3.12584 11.895C3.20709 11.973 3.28509 12.1339 3.26884 12.3727C3.24228 12.7905 3.24228 13.2095 3.26884 13.6272C3.28509 13.8661 3.20709 14.027 3.12584 14.105L1.80146 15.4147C1.03121 16.1769 0.699712 17.3907 1.21159 18.4876C1.53659 19.1831 1.92009 19.8445 2.35559 20.4669C3.05109 21.4565 4.26659 21.7766 5.31309 21.4906L7.10546 20.9982C7.21271 20.9674 7.39146 20.9804 7.59134 21.1136C7.93746 21.346 8.29984 21.5556 8.67684 21.7409C8.89296 21.8481 8.99209 21.9976 9.02134 22.1049L9.49096 23.9021C9.76559 24.9519 10.6528 25.8456 11.8602 25.9496C12.6182 26.0155 13.3805 26.0155 14.1385 25.9496C15.3458 25.8456 16.2347 24.9519 16.5077 23.9021L16.979 22.1049C17.0066 21.9976 17.1057 21.8481 17.3218 21.7409C17.6968 21.5554 18.0594 21.3459 18.4073 21.1136C18.6072 20.9804 18.786 20.9674 18.8948 20.9982L20.6856 21.489C21.7321 21.7766 22.9476 21.4565 23.6431 20.4652C24.0786 19.8445 24.4637 19.1831 24.7871 18.4876C25.299 17.3907 24.9675 16.1769 24.1956 15.4147L22.8728 14.105C22.7916 14.027 22.7136 13.8661 22.7298 13.6272C22.7563 13.2095 22.7563 12.7905 22.7298 12.3727C22.7136 12.1339 22.7932 11.973 22.8728 11.895L24.1956 10.5852C24.9675 9.82312 25.299 8.60925 24.7871 7.51237C24.4647 6.82028 24.0819 6.15796 23.6431 5.53312C22.9476 4.5435 21.7321 4.22337 20.6856 4.50937L18.8932 5.00175C18.786 5.03262 18.6072 5.01962 18.4073 4.88637C18.0594 4.65419 17.6968 4.44467 17.3218 4.25912C17.1057 4.15187 17.0066 4.00237 16.9773 3.89512L16.5093 2.09625C16.2331 1.04812 15.3458 0.154375 14.1385 0.050375C13.7597 0.0171246 13.3796 0.000317195 12.9993 0V0ZM15.4368 13C15.4368 13.6465 15.18 14.2665 14.7229 14.7236C14.2658 15.1807 13.6458 15.4375 12.9993 15.4375C12.3529 15.4375 11.7329 15.1807 11.2758 14.7236C10.8186 14.2665 10.5618 13.6465 10.5618 13C10.5618 12.3535 10.8186 11.7335 11.2758 11.2764C11.7329 10.8193 12.3529 10.5625 12.9993 10.5625C13.6458 10.5625 14.2658 10.8193 14.7229 11.2764C15.18 11.7335 15.4368 12.3535 15.4368 13V13ZM17.8743 13C17.8743 14.2929 17.3607 15.5329 16.4465 16.4471C15.5322 17.3614 14.2923 17.875 12.9993 17.875C11.7064 17.875 10.4664 17.3614 9.55219 16.4471C8.63795 15.5329 8.12434 14.2929 8.12434 13C8.12434 11.7071 8.63795 10.4671 9.55219 9.55285C10.4664 8.63861 11.7064 8.125 12.9993 8.125C14.2923 8.125 15.5322 8.63861 16.4465 9.55285C17.3607 10.4671 17.8743 11.7071 17.8743 13V13Z" fill="#BDA7E9"/>
</g>
<defs>
<clipPath id="clip0_707_135">
<rect width="26" height="26" fill="white"/>
</clipPath>
</defs>
</svg>
