<svg width="26" height="26" viewBox="0 0 26 26" fill="none" xmlns="http://www.w3.org/2000/svg">
<g clip-path="url(#clip0_707_126)">
<path fill-rule="evenodd" clip-rule="evenodd" d="M10.5625 2.84375C10.5625 2.73601 10.6053 2.63267 10.6815 2.55649C10.7577 2.4803 10.861 2.4375 10.9688 2.4375H15.0312C15.139 2.4375 15.2423 2.4803 15.3185 2.55649C15.3947 2.63267 15.4375 2.73601 15.4375 2.84375V4.875H10.5625V2.84375ZM17.875 2.84375V4.875H21.5312C21.8545 4.875 22.1645 5.0034 22.393 5.23196C22.6216 5.46052 22.75 5.77052 22.75 6.09375C22.75 6.41698 22.6216 6.72698 22.393 6.95554C22.1645 7.1841 21.8545 7.3125 21.5312 7.3125H4.46875C4.14552 7.3125 3.83552 7.1841 3.60696 6.95554C3.3784 6.72698 3.25 6.41698 3.25 6.09375C3.25 5.77052 3.3784 5.46052 3.60696 5.23196C3.83552 5.0034 4.14552 4.875 4.46875 4.875H8.125V2.84375C8.125 1.274 9.399 0 10.9688 0H15.0312C16.601 0 17.875 1.274 17.875 2.84375ZM7.306 10.8469C7.29382 10.6847 7.24931 10.5266 7.17508 10.3819C7.10085 10.2372 6.99841 10.1088 6.87379 10.0043C6.74917 9.89976 6.60489 9.82125 6.44946 9.77337C6.29402 9.72549 6.13058 9.70921 5.96876 9.72548C5.80693 9.74175 5.65 9.79024 5.50721 9.8681C5.36442 9.94596 5.23866 10.0516 5.13733 10.1788C5.03601 10.3061 4.96117 10.4523 4.91724 10.6089C4.8733 10.7655 4.86115 10.9293 4.8815 11.0906L5.954 21.8156C6.02449 22.517 6.35297 23.1672 6.87571 23.6401C7.39846 24.113 8.07821 24.3749 8.78313 24.375H17.2169C18.6794 24.375 19.9014 23.2684 20.046 21.814L21.1185 11.089C21.1413 10.7724 21.0396 10.4595 20.8352 10.2167C20.6308 9.97392 20.3398 9.82043 20.024 9.7889C19.7082 9.75736 19.3925 9.85025 19.1442 10.0478C18.8958 10.2454 18.7343 10.5321 18.694 10.8469L17.6215 21.5719C17.6114 21.6722 17.5644 21.7651 17.4897 21.8327C17.4149 21.9002 17.3177 21.9376 17.2169 21.9375H8.78313C8.68234 21.9376 8.58512 21.9002 8.51035 21.8327C8.43557 21.7651 8.38858 21.6722 8.3785 21.5719L7.306 10.8469V10.8469Z" fill="#BDA7E9"/>
</g>
<defs>
<clipPath id="clip0_707_126">
<rect width="26" height="26" fill="white"/>
</clipPath>
</defs>
</svg>
